<?xml version="1.0" standalone="no"?>
<!DOCTYPE svg PUBLIC "-//W3C//DTD SVG 20010904//EN"
 "http://www.w3.org/TR/2001/REC-SVG-20010904/DTD/svg10.dtd">
<svg version="1.0" xmlns="http://www.w3.org/2000/svg"
 width="920.000000pt" height="512.000000pt" viewBox="0 0 920.000000 512.000000"
 preserveAspectRatio="xMidYMid meet">
<metadata>
Created by potrace 1.15, written by Peter Selinger 2001-2017
</metadata>
<g transform="translate(0.000000,512.000000) scale(0.100000,-0.100000)"
fill="#000000" stroke="none">
<path d="M4518 5110 c-130 -23 -71 31 -1285 -1183 -999 -999 -1125 -1128
-1148 -1179 -36 -79 -49 -171 -36 -255 22 -143 -41 -74 1185 -1299 1225 -1226
1156 -1163 1299 -1185 139 -22 269 21 370 122 126 126 159 306 86 480 -20 48
-123 155 -968 1001 l-946 948 946 948 c1028 1030 974 970 1000 1110 36 194
-80 400 -267 471 -60 23 -171 33 -236 21z"/>
<path d="M6610 4671 c-72 -23 -112 -44 -157 -84 -37 -33 -1652 -1731 -1732
-1822 -125 -143 -154 -349 -72 -522 34 -70 -19 -13 983 -1069 505 -533 835
-873 865 -892 172 -111 379 -87 526 59 137 137 173 354 88 534 -32 68 -64 104
-441 501 -146 153 -436 458 -644 677 l-379 399 75 76 c59 61 867 913 1265
1335 88 93 127 152 147 221 36 127 29 242 -23 352 -90 193 -311 297 -501 235z"/>
</g>
</svg>
