<?xml version="1.0" standalone="no"?>
<!DOCTYPE svg PUBLIC "-//W3C//DTD SVG 20010904//EN"
 "http://www.w3.org/TR/2001/REC-SVG-20010904/DTD/svg10.dtd">
<svg version="1.0" xmlns="http://www.w3.org/2000/svg"
 width="920.000000pt" height="512.000000pt" viewBox="0 0 920.000000 512.000000"
 preserveAspectRatio="xMidYMid meet">
<metadata>
Created by potrace 1.15, written by Peter Selinger 2001-2017
</metadata>
<g transform="translate(0.000000,512.000000) scale(0.100000,-0.100000)"
fill="#000000" stroke="none">
<path d="M4517 5110 c-76 -13 -156 -58 -220 -121 -126 -126 -159 -306 -86
-480 20 -48 123 -155 968 -1001 l946 -948 -946 -947 c-845 -847 -948 -954
-968 -1002 -73 -174 -40 -354 86 -480 101 -100 231 -144 368 -122 148 23 70
-48 1302 1184 999 999 1125 1128 1148 1179 36 79 49 171 36 255 -22 142 39 75
-1170 1286 -608 609 -1126 1121 -1151 1137 -25 16 -65 36 -87 44 -54 19 -165
27 -226 16z"/>
<path d="M2390 4900 c-223 -47 -380 -287 -341 -523 25 -152 29 -156 481 -633
146 -153 436 -458 644 -677 l379 -399 -75 -76 c-59 -61 -867 -913 -1265 -1335
-117 -124 -152 -192 -168 -327 -19 -163 75 -356 213 -437 60 -36 155 -63 216
-63 92 0 203 42 273 103 37 33 1652 1731 1732 1822 125 143 154 349 72 522
-34 70 19 13 -983 1069 -505 533 -835 873 -865 892 -27 17 -68 38 -92 47 -56
19 -163 27 -221 15z"/>
</g>
</svg>
